<svg xmlns="http://www.w3.org/2000/svg" width="16" height="16" viewBox="0 0 16 16">
    <g fill="none" fill-rule="nonzero">
        <path fill="#338AF3" d="M0 0h16v16H0z"/>
        <path fill="#6DA544" d="M0 0h16v8H0z"/>
        <path fill="#D80027" d="M0 16l16-8L0 0v16z"/>
        <path fill="#FFDA44" d="M4.406 4.902a2.612 2.612 0 0 0-2.609 2.609v.978a2.612 2.612 0 0 0 2.609 2.609 2.612 2.612 0 0 0 2.609-2.609v-.978a2.612 2.612 0 0 0-2.61-2.609zm1.63 3.587c0 .729-.48 1.347-1.141 1.555V8.978l.692-.692-.692-.692V7.022h-.978V8l-.692.691.692.692v.661A1.633 1.633 0 0 1 2.775 8.49V7.51c0-.9.732-1.63 1.63-1.63.9 0 1.631.73 1.631 1.63v.978z"/>
    </g>
</svg>
