<?xml version="1.0" encoding="utf-8"?>
<!-- Generator: Adobe Illustrator 21.0.2, SVG Export Plug-In . SVG Version: 6.00 Build 0)  -->
<svg version="1.1" id="Capa_1" xmlns="http://www.w3.org/2000/svg" xmlns:xlink="http://www.w3.org/1999/xlink" x="0px" y="0px"
	 viewBox="0 0 16 16" style="enable-background:new 0 0 16 16;" xml:space="preserve">
<style type="text/css">
	.st0{fill:#FF4B55;}
	.st1{fill:#73AF00;}
	.st2{fill:#FFE15A;}
	.st3{fill:#F5F5F5;}
	.st4{fill:#41479B;}
</style>
<rect x="0" class="st0" width="16" height="16"/>
<rect y="0" class="st1" width="5.8" height="16"/>
<circle class="st2" cx="5.8" cy="8" r="3.5"/>
<path class="st0" d="M7,6.8v1.6C7,9,6.4,9.6,5.8,9.6S4.6,9,4.6,8.4V6.8L7,6.8 M7.4,6H4.2C4,6,3.8,6.2,3.8,6.4v2c0,1.1,0.9,2,2,2
	s2-0.9,2-2v-2C7.7,6.2,7.6,6,7.4,6L7.4,6z"/>
<path class="st3" d="M6.6,7.2v1.1c0,0.5-0.4,0.8-0.8,0.8S5,8.7,5,8.3V7.2H6.6"/>
<g>
	<circle class="st2" cx="4.2" cy="6.4" r="0.2"/>
	<circle class="st2" cx="7.4" cy="6.4" r="0.2"/>
	<circle class="st2" cx="4.2" cy="8" r="0.2"/>
	<circle class="st2" cx="7.4" cy="8" r="0.2"/>
	<circle class="st2" cx="5.8" cy="6.4" r="0.2"/>
	<circle class="st2" cx="7" cy="9.4" r="0.2"/>
	<circle class="st2" cx="4.6" cy="9.4" r="0.2"/>
</g>
<g>
	<path class="st4" d="M6,7.9v0.3c0,0.1-0.1,0.3-0.3,0.3c-0.1,0-0.3-0.1-0.3-0.3V7.9H6"/>
	<path class="st4" d="M6,7.1v0.3c0,0.1-0.1,0.3-0.3,0.3c-0.1,0-0.3-0.1-0.3-0.3V7.1H6"/>
	<path class="st4" d="M6,8.7V9c0,0.1-0.1,0.3-0.3,0.3C5.7,9.3,5.5,9.2,5.5,9V8.7H6"/>
	<path class="st4" d="M6.7,7.9v0.3c0,0.1-0.1,0.3-0.3,0.3c-0.1,0-0.3-0.1-0.3-0.3V7.9H6.7"/>
	<path class="st4" d="M5.4,7.9v0.3c0,0.1-0.1,0.3-0.3,0.3C5,8.5,4.9,8.4,4.9,8.2V7.9H5.4"/>
</g>
</svg>
