<svg xmlns="http://www.w3.org/2000/svg" width="16" height="17" viewBox="0 0 16 17">
    <g fill="#FFF" fill-rule="nonzero" opacity=".9">
        <path d="M11.57.033H4.43C2.008.033.032 2.05.032 4.523v7.288c0 2.473 1.97 4.49 4.398 4.49h7.14c2.422 0 4.398-2.017 4.398-4.49V4.523c0-2.473-1.97-4.49-4.398-4.49zm2.99 11.778c0 1.679-1.34 3.045-2.984 3.045h-7.14c-1.644 0-2.983-1.366-2.983-3.045V4.523c0-1.68 1.339-3.046 2.984-3.046h7.14c1.644 0 2.982 1.367 2.982 3.046v7.288z"/>
        <path d="M8 3.976c-2.263 0-4.105 1.88-4.105 4.19 0 2.31 1.842 4.191 4.105 4.191 2.263 0 4.105-1.88 4.105-4.19 0-2.31-1.836-4.191-4.105-4.191zm0 6.943c-1.485 0-2.69-1.23-2.69-2.746S6.515 5.427 8 5.427c1.485 0 2.69 1.23 2.69 2.746.006 1.51-1.205 2.746-2.69 2.746zM12.284 2.753c-.274 0-.542.11-.733.312a1.082 1.082 0 0 0-.306.748 1.054 1.054 0 0 0 1.039 1.061c.274 0 .541-.11.733-.312.191-.196.306-.469.306-.749s-.109-.553-.306-.748a1.033 1.033 0 0 0-.733-.312z"/>
    </g>
</svg>
