<svg xmlns="http://www.w3.org/2000/svg" width="16" height="12" viewBox="0 0 16 12">
    <path fill="#00A1DF" fill-rule="nonzero" d="M15.724 2.206c-.196-.868-.892-1.51-1.73-1.605C12.01.375 10.002.374 8.003.375c-2-.001-4.008 0-5.992.226C1.173.697.478 1.338.28 2.206.004 3.443 0 4.794 0 6.067c0 1.274 0 2.624.279 3.861.195.868.891 1.51 1.729 1.605 1.984.226 3.992.228 5.991.226 2 .002 4.008 0 5.992-.226.837-.096 1.533-.736 1.729-1.605.279-1.237.28-2.587.28-3.86 0-1.274.002-2.625-.276-3.862zM5.935 8.603V3.2l5.087 2.709-5.087 2.693z"/>
</svg>
