<svg xmlns="http://www.w3.org/2000/svg" width="16" height="13" viewBox="0 0 16 13">
    <path fill="#FFF" fill-rule="nonzero" d="M16 1.5a6.72 6.72 0 0 1-1.885.505A3.226 3.226 0 0 0 15.557.234a6.667 6.667 0 0 1-2.083.777A3.32 3.32 0 0 0 11.078 0C9.264 0 7.795 1.433 7.795 3.2c0 .25.029.496.085.73A9.403 9.403 0 0 1 1.113.586a3.13 3.13 0 0 0-.444 1.61c0 1.11.58 2.09 1.46 2.664a3.328 3.328 0 0 1-1.486-.4l-.001.04c0 1.55 1.132 2.844 2.633 3.139a3.396 3.396 0 0 1-1.482.054c.417 1.27 1.63 2.198 3.066 2.223A6.695 6.695 0 0 1 0 11.24a9.452 9.452 0 0 0 5.031 1.439c6.038 0 9.34-4.878 9.34-9.107 0-.138-.002-.275-.009-.414A6.577 6.577 0 0 0 16 1.5z"/>
</svg>
