<svg xmlns="http://www.w3.org/2000/svg" width="40" height="40" viewBox="0 0 40 40">
    <g fill="none" fill-rule="evenodd">
        <path fill="#FFF" d="M0 0h40v40H0z"/>
        <path fill="#000" fill-rule="nonzero" d="M28 14.539a6.589 6.589 0 0 1-1.885.517 3.292 3.292 0 0 0 1.442-1.817 6.565 6.565 0 0 1-2.083.797 3.282 3.282 0 0 0-5.594 2.994 9.322 9.322 0 0 1-6.767-3.43 3.28 3.28 0 0 0 1.016 4.382 3.265 3.265 0 0 1-1.486-.41l-.001.042a3.286 3.286 0 0 0 2.633 3.218 3.316 3.316 0 0 1-1.482.056 3.286 3.286 0 0 0 3.066 2.28A6.588 6.588 0 0 1 12 24.524 9.28 9.28 0 0 0 17.031 26c6.038 0 9.34-5.002 9.34-9.338a9.27 9.27 0 0 0-.009-.424 6.666 6.666 0 0 0 1.638-1.7z"/>
    </g>
</svg>
