<svg xmlns="http://www.w3.org/2000/svg" width="40" height="40" viewBox="0 0 40 40">
    <g fill="none" fill-rule="evenodd">
        <path fill="#FFF" d="M0 0h40v40H0z"/>
        <g fill="#000" fill-rule="nonzero">
            <path d="M23.584 12h-7.168A4.425 4.425 0 0 0 12 16.416v7.168A4.42 4.42 0 0 0 16.416 28h7.168A4.425 4.425 0 0 0 28 23.584v-7.168A4.42 4.42 0 0 0 23.584 12zm3.002 11.584a3 3 0 0 1-2.996 2.995h-7.168a3 3 0 0 1-2.995-2.995v-7.168a3 3 0 0 1 2.995-2.995h7.168a3 3 0 0 1 2.996 2.995v7.168z"/>
            <path d="M20 16c-2.205 0-4 1.795-4 4s1.795 4 4 4 4-1.795 4-4-1.789-4-4-4zm0 6.627a2.622 2.622 0 1 1 .001-5.243A2.622 2.622 0 0 1 20 22.627zM24 15a1.009 1.009 0 0 0-1 1c0 .264.104.521.294.706.185.184.442.294.706.294a1.009 1.009 0 0 0 1-1 1.005 1.005 0 0 0-1-1z"/>
        </g>
    </g>
</svg>
