<svg xmlns="http://www.w3.org/2000/svg" width="16" height="12" viewBox="0 0 16 12">
    <path fill="#FFF" fill-rule="nonzero" d="M15.724 1.831c-.196-.868-.892-1.51-1.73-1.605C12.01 0 10.002 0 8.003 0 6.003 0 3.995 0 2.01.226 1.173.322.478.963.28 1.831.004 3.068 0 4.42 0 5.692c0 1.274 0 2.624.279 3.861.195.868.891 1.51 1.729 1.605 1.984.226 3.992.228 5.991.226 2 .002 4.008 0 5.992-.226.837-.096 1.533-.736 1.729-1.605.279-1.237.28-2.587.28-3.86 0-1.274.002-2.625-.276-3.862zM5.935 8.228V2.826l5.087 2.709-5.087 2.693z"/>
</svg>
