<svg xmlns="http://www.w3.org/2000/svg" width="16" height="17" viewBox="0 0 16 17">
    <g fill="#00A1DF" fill-rule="nonzero" opacity=".9">
        <path d="M11.57.366H4.43C2.008.366.032 2.383.032 4.856v7.288c0 2.473 1.97 4.49 4.398 4.49h7.14c2.422 0 4.398-2.017 4.398-4.49V4.856c0-2.473-1.97-4.49-4.398-4.49zm2.99 11.778c0 1.679-1.34 3.046-2.984 3.046h-7.14c-1.644 0-2.983-1.367-2.983-3.046V4.856c0-1.679 1.339-3.046 2.984-3.046h7.14c1.644 0 2.982 1.367 2.982 3.046v7.288z"/>
        <path d="M8 4.31c-2.263 0-4.105 1.88-4.105 4.19 0 2.31 1.842 4.19 4.105 4.19 2.263 0 4.105-1.88 4.105-4.19 0-2.31-1.836-4.19-4.105-4.19zm0 6.943c-1.485 0-2.69-1.23-2.69-2.746C5.31 6.99 6.515 5.76 8 5.76c1.485 0 2.69 1.23 2.69 2.747.006 1.51-1.205 2.746-2.69 2.746zM12.284 3.086c-.274 0-.542.11-.733.312a1.082 1.082 0 0 0-.306.749 1.054 1.054 0 0 0 1.039 1.06c.274 0 .541-.11.733-.312.191-.195.306-.469.306-.748 0-.28-.109-.554-.306-.749a1.033 1.033 0 0 0-.733-.312z"/>
    </g>
</svg>
