<svg xmlns="http://www.w3.org/2000/svg" width="16" height="14" viewBox="0 0 16 14">
    <path fill="#00A1DF" fill-rule="nonzero" d="M16 1.907a6.612 6.612 0 0 1-1.885.514A3.28 3.28 0 0 0 15.557.613a6.583 6.583 0 0 1-2.083.794A3.287 3.287 0 0 0 11.078.375 3.275 3.275 0 0 0 7.88 4.387 9.336 9.336 0 0 1 1.113.972 3.261 3.261 0 0 0 2.13 5.334a3.276 3.276 0 0 1-1.486-.407l-.001.041a3.275 3.275 0 0 0 2.633 3.204 3.33 3.33 0 0 1-1.482.055 3.285 3.285 0 0 0 3.066 2.27A6.607 6.607 0 0 1 0 11.848a9.31 9.31 0 0 0 5.031 1.469c6.038 0 9.34-4.98 9.34-9.296 0-.142-.002-.282-.009-.423A6.65 6.65 0 0 0 16 1.907z"/>
</svg>
